<?xml version="1.0" encoding="utf-8"?>
<svg xmlns="http://www.w3.org/2000/svg" xmlns:xlink="http://www.w3.org/1999/xlink">
<symbol id="behance" viewBox="-6 -8 25 25">
<path d="M12.3138 1.20062H8.89727V0.351979H12.3141V1.20062H12.3138ZM6.62279 4.68063C6.84324 5.02209 6.9534 5.43668 6.9534 5.92342C6.9534 6.42677 6.8292 6.87832 6.57651 7.27719C6.41575 7.54113 6.21616 7.76409 5.97634 7.94358C5.70624 8.15116 5.38647 8.2935 5.01886 8.36955C4.65008 8.44573 4.25093 8.48422 3.82096 8.48422H0V0H4.0974C5.1302 0.0168017 5.8624 0.31603 6.29478 0.903677C6.55422 1.26409 6.68277 1.69656 6.68277 2.19925C6.68277 2.71794 6.55267 3.13298 6.29069 3.44831C6.14496 3.62511 5.92967 3.78593 5.64468 3.93109C6.07636 4.08912 6.40389 4.33797 6.62279 4.68063ZM1.95667 3.3449H3.75198C4.12092 3.3449 4.41917 3.27478 4.64888 3.13459C4.87842 2.99463 4.99296 2.74584 4.99296 2.38863C4.99296 1.99398 4.8413 1.73203 4.53725 1.60596C4.27591 1.51837 3.94152 1.47325 3.53578 1.47325H1.95667V3.3449ZM5.16583 5.80222C5.16583 5.36151 4.9857 5.05683 4.62618 4.89335C4.42513 4.80043 4.14146 4.75294 3.77775 4.74955H1.95667V7.01055H3.74957C4.11791 7.01055 4.403 6.96233 4.60874 6.86174C4.97977 6.6768 5.16583 6.32482 5.16583 5.80222ZM13.5815 4.42198C13.6227 4.69956 13.6414 5.10229 13.6338 5.62869H9.20902C9.23343 6.23945 9.44427 6.66656 9.84416 6.91098C10.0853 7.06425 10.3777 7.1391 10.7201 7.1391C11.0811 7.1391 11.3753 7.04783 11.6018 6.86022C11.7252 6.76077 11.8341 6.6204 11.9282 6.44329H13.5501C13.5076 6.80402 13.3123 7.16988 12.9614 7.54167C12.4177 8.13262 11.6551 8.42893 10.6758 8.42893C9.86679 8.42893 9.1538 8.17903 8.53492 7.68103C7.91811 7.18129 7.60832 6.37082 7.60832 5.24653C7.60832 4.19224 7.88644 3.38529 8.44454 2.8236C9.0047 2.26087 9.72762 1.98079 10.6187 1.98079C11.1469 1.98079 11.623 2.0752 12.0478 2.26499C12.4712 2.45498 12.8212 2.75399 13.0968 3.16493C13.3462 3.52683 13.5066 3.94529 13.5815 4.42198ZM11.9851 4.5803C11.9553 4.15797 11.8143 3.83833 11.5604 3.61988C11.3086 3.40082 10.9941 3.29085 10.6187 3.29085C10.2102 3.29085 9.89478 3.4084 9.67065 3.63943C9.445 3.87 9.3046 4.18346 9.24706 4.58033H11.9851V4.5803Z" fill="black"/>

</symbol>
<symbol id="dribbble" viewBox="-290 -290 1600 1600">
    <path d="M0 500c0-90.667 22.334-174.333 67-251 44.667-76.667 105.334-137.333 182-182C325.667 22.333 409.334 0 500 0c90.667 0 174.334 22.333 251 67 76.667 44.667 137.334 105.333 182 182 44.667 76.667 67 160.333 67 251s-22.333 174.333-67 251c-44.666 76.667-105.333 137.333-182 182-76.666 44.667-160.333 67-251 67-90.666 0-174.333-22.333-251-67-76.666-44.667-137.333-105.333-182-182C22.334 674.333 0 590.667 0 500zm83 0c0 104 35 195.667 105 275 32-62.667 82.667-122.333 152-179 69.334-56.667 137-92.333 203-107-10-23.333-19.666-44.333-29-63-114.666 36.667-238.666 55-372 55-26 0-45.333-.333-58-1 0 2.667-.166 6-.5 10-.333 4-.5 7.333-.5 10zm13-103c14.667 1.333 36.334 2 65 2 111.334 0 217-15 317-45-50.666-90-106.333-165-167-225-52.666 26.667-97.833 63.667-135.5 111-37.666 47.333-64.166 99.667-79.5 157zm149 432c75.334 58.667 160.334 88 255 88 49.334 0 98.334-9.333 147-28-13.333-114-39.333-224.333-78-331-61.333 13.333-123.166 47-185.5 101C321.167 713 275 769.667 245 829zM398 97c58.667 60.667 113 136.333 163 227 90.667-38 159-86.333 205-145-77.333-64-166-96-266-96-34 0-68 4.667-102 14zm199 298c10 21.333 21.334 48.333 34 81 49.334-4.667 103-7 161-7 41.334 0 82.334 1 123 3-5.333-90.667-38-171.333-98-242-43.333 64.667-116.666 119.667-220 165zm59 151c34 98.667 57 200 69 304 52.667-34 95.667-77.667 129-131 33.334-53.333 53.334-111 60-173-48.666-3.333-93-5-133-5-36.666 0-78.333 1.667-125 5z"/>

</symbol>
<symbol id="edit-write" viewBox="0 0 576 512"><path d="M402.6 83.2l90.2 90.2c3.8 3.8 3.8 10 0 13.8L274.4 405.6l-92.8 10.3c-12.4 1.4-22.9-9.1-21.5-21.5l10.3-92.8L388.8 83.2c3.8-3.8 10-3.8 13.8 0zm162-22.9l-48.8-48.8c-15.2-15.2-39.9-15.2-55.2 0l-35.4 35.4c-3.8 3.8-3.8 10 0 13.8l90.2 90.2c3.8 3.8 10 3.8 13.8 0l35.4-35.4c15.2-15.3 15.2-40 0-55.2zM384 346.2V448H64V128h229.8c3.2 0 6.2-1.3 8.5-3.5l40-40c7.6-7.6 2.2-20.5-8.5-20.5H48C21.5 64 0 85.5 0 112v352c0 26.5 21.5 48 48 48h352c26.5 0 48-21.5 48-48V306.2c0-10.7-12.9-16-20.5-8.5l-40 40c-2.2 2.3-3.5 5.3-3.5 8.5z"/>
</symbol>
<symbol id="facebook" viewBox="-9 -6 25 25">
<path d="M6.7364 0.00270487L5.05742 0C3.17114 0 1.95214 1.25573 1.95214 3.19932V4.67442H0.264004C0.118128 4.67442 0 4.79316 0 4.93963V7.07688C0 7.22335 0.118263 7.34196 0.264004 7.34196H1.95214V12.7349C1.95214 12.8814 2.07027 13 2.21615 13H4.41869C4.56457 13 4.6827 12.8813 4.6827 12.7349V7.34196H6.65653C6.8024 7.34196 6.92053 7.22335 6.92053 7.07688L6.92134 4.93963C6.92134 4.8693 6.89346 4.80195 6.84402 4.75218C6.79459 4.70241 6.72724 4.67442 6.6572 4.67442H4.6827V3.42396C4.6827 2.82294 4.82534 2.51783 5.60509 2.51783L6.73613 2.51742C6.88187 2.51742 7 2.39868 7 2.25234V0.267782C7 0.121584 6.88201 0.00297535 6.7364 0.00270487Z" fill="black"/>

</symbol>
<symbol id="instagram" viewBox="-6 -6 24 24">
	<path fill-rule="evenodd" clip-rule="evenodd" d="M9.36923 12H2.63077C1.2 12 0 10.8462 0 9.36923V2.63077C0 1.15385 1.15385 0 2.63077 0H9.36923C10.8 0 12 1.15385 12 2.63077V9.36923C12 10.8462 10.8462 12 9.36923 12ZM5.99993 8.72301C7.50385 8.72301 8.72301 7.50385 8.72301 5.99993C8.72301 4.49602 7.50385 3.27686 5.99993 3.27686C4.49602 3.27686 3.27686 4.49602 3.27686 5.99993C3.27686 7.50385 4.49602 8.72301 5.99993 8.72301ZM10.477 2.26192C10.477 2.72074 10.105 3.09269 9.6462 3.09269C9.18738 3.09269 8.81543 2.72074 8.81543 2.26192C8.81543 1.8031 9.18738 1.43115 9.6462 1.43115C10.105 1.43115 10.477 1.8031 10.477 2.26192Z" fill="black"/>

</symbol>
<symbol id="linkedin-copy" viewBox="-7 -5 25 25">
<path d="M12 7.35719V12H9.42801V7.66814C9.42801 6.57994 9.056 5.83729 8.12503 5.83729C7.41435 5.83729 6.99142 6.33778 6.80536 6.82192C6.73751 6.995 6.72004 7.23591 6.72004 7.47818V12H4.14719C4.14719 12 4.18184 4.66325 4.14719 3.90311H6.71979V5.05081C6.71457 5.05939 6.70779 5.06865 6.70288 5.07697H6.71979V5.05081C7.06159 4.49989 7.672 3.71289 9.03829 3.71289C10.731 3.71286 12 4.87014 12 7.35719ZM1.45587 0C0.575704 0 0 0.604172 0 1.39868C0 2.17587 0.559048 2.79838 1.42172 2.79838H1.43891C2.33613 2.79838 2.89411 2.17599 2.89411 1.39868C2.87721 0.604172 2.33613 0 1.45587 0ZM0.152805 12H2.72468V3.90311H0.152805V12Z" fill="black"/>

</symbol>
<symbol id="linkedin" viewBox="-7 -5 25 25">
<path d="M12 7.35719V12H9.42801V7.66814C9.42801 6.57994 9.056 5.83729 8.12503 5.83729C7.41435 5.83729 6.99142 6.33778 6.80536 6.82192C6.73751 6.995 6.72004 7.23591 6.72004 7.47818V12H4.14719C4.14719 12 4.18184 4.66325 4.14719 3.90311H6.71979V5.05081C6.71457 5.05939 6.70779 5.06865 6.70288 5.07697H6.71979V5.05081C7.06159 4.49989 7.672 3.71289 9.03829 3.71289C10.731 3.71286 12 4.87014 12 7.35719ZM1.45587 0C0.575704 0 0 0.604172 0 1.39868C0 2.17587 0.559048 2.79838 1.42172 2.79838H1.43891C2.33613 2.79838 2.89411 2.17599 2.89411 1.39868C2.87721 0.604172 2.33613 0 1.45587 0ZM0.152805 12H2.72468V3.90311H0.152805V12Z" fill="black"/>

</symbol>
<symbol id="medium-copy" viewBox="0 0 45 45">
<path d="M23 22.5C23 27.1945 19.1933 31 14.5 31C9.80666 31 6 27.1916 6 22.5C6 17.8084 9.80666 14 14.5 14C19.1933 14 23 17.8055 23 22.5Z"/>
<path d="M34 22C34 25.8663 31.7615 29 29 29C26.2384 29 24 25.8663 24 22C24 18.1337 26.2384 15 29 15C31.7615 15 34 18.1337 34 22Z"/>
<path d="M37 22C37 25.8655 36.5521 29 36 29C35.4479 29 35 25.8655 35 22C35 18.1345 35.4479 15 36 15C36.5521 15 37 18.1317 37 22Z"/>

</symbol>
<symbol id="medium" viewBox="0 0 45 45">
<path d="M23 22.5C23 27.1945 19.1933 31 14.5 31C9.80666 31 6 27.1916 6 22.5C6 17.8084 9.80666 14 14.5 14C19.1933 14 23 17.8055 23 22.5Z"/>
<path d="M34 22C34 25.8663 31.7615 29 29 29C26.2384 29 24 25.8663 24 22C24 18.1337 26.2384 15 29 15C31.7615 15 34 18.1337 34 22Z"/>
<path d="M37 22C37 25.8655 36.5521 29 36 29C35.4479 29 35 25.8655 35 22C35 18.1345 35.4479 15 36 15C36.5521 15 37 18.1317 37 22Z"/>

</symbol>
<symbol id="outlined-edit-note-copy" viewBox="0 0 24 24"><path d="M19.607,18.746c0,0.881-0.716,1.624-1.597,1.624H5.231c-0.881,0-1.597-0.743-1.597-1.624V5.967  c0-0.881,0.716-1.571,1.597-1.571h7.454V3.332H5.231c-1.468,0-2.662,1.168-2.662,2.636v12.778c0,1.468,1.194,2.688,2.662,2.688  h12.778c1.468,0,2.662-1.221,2.662-2.688v-7.428h-1.065V18.746z"/><path d="M20.807,3.17c-0.804-0.805-2.207-0.805-3.012,0l-7.143,7.143c-0.068,0.068-0.117,0.154-0.14,0.247L9.76,13.571  c-0.045,0.181,0.008,0.373,0.14,0.506c0.101,0.101,0.237,0.156,0.376,0.156c0.043,0,0.086-0.005,0.129-0.016l3.012-0.753  c0.094-0.023,0.179-0.072,0.247-0.14l7.143-7.143c0.402-0.402,0.624-0.937,0.624-1.506S21.21,3.572,20.807,3.17z M13.016,12.467  l-2.008,0.502l0.502-2.008l5.909-5.909l1.506,1.506L13.016,12.467z M20.054,5.428l-0.376,0.376l-1.506-1.506l0.376-0.376  c0.402-0.402,1.104-0.402,1.506,0c0.201,0.201,0.312,0.468,0.312,0.753C20.366,4.96,20.255,5.227,20.054,5.428z"/>
</symbol>
<symbol id="outlined-edit-note" viewBox="0 0 24 24"><path d="M19.607,18.746c0,0.881-0.716,1.624-1.597,1.624H5.231c-0.881,0-1.597-0.743-1.597-1.624V5.967  c0-0.881,0.716-1.571,1.597-1.571h7.454V3.332H5.231c-1.468,0-2.662,1.168-2.662,2.636v12.778c0,1.468,1.194,2.688,2.662,2.688  h12.778c1.468,0,2.662-1.221,2.662-2.688v-7.428h-1.065V18.746z"/><path d="M20.807,3.17c-0.804-0.805-2.207-0.805-3.012,0l-7.143,7.143c-0.068,0.068-0.117,0.154-0.14,0.247L9.76,13.571  c-0.045,0.181,0.008,0.373,0.14,0.506c0.101,0.101,0.237,0.156,0.376,0.156c0.043,0,0.086-0.005,0.129-0.016l3.012-0.753  c0.094-0.023,0.179-0.072,0.247-0.14l7.143-7.143c0.402-0.402,0.624-0.937,0.624-1.506S21.21,3.572,20.807,3.17z M13.016,12.467  l-2.008,0.502l0.502-2.008l5.909-5.909l1.506,1.506L13.016,12.467z M20.054,5.428l-0.376,0.376l-1.506-1.506l0.376-0.376  c0.402-0.402,1.104-0.402,1.506,0c0.201,0.201,0.312,0.468,0.312,0.753C20.366,4.96,20.255,5.227,20.054,5.428z"/>
</symbol>
<symbol id="unknown" viewBox="0 0 24 24"><g><path d="M0 0h24v24H0z" fill="none"/><path d="M16 2l5 5v14.008a.993.993 0 0 1-.993.992H3.993A1 1 0 0 1 3 21.008V2.992C3 2.444 3.445 2 3.993 2H16zm-5 13v2h2v-2h-2zm2-1.645A3.502 3.502 0 0 0 12 6.5a3.501 3.501 0 0 0-3.433 2.813l1.962.393A1.5 1.5 0 1 1 12 11.5a1 1 0 0 0-1 1V14h2v-.645z"/></g>
</symbol></svg>