<svg viewBox="-6 -8 25 25" xmlns="http://www.w3.org/2000/svg">
<path d="M12.3138 1.20062H8.89727V0.351979H12.3141V1.20062H12.3138ZM6.62279 4.68063C6.84324 5.02209 6.9534 5.43668 6.9534 5.92342C6.9534 6.42677 6.8292 6.87832 6.57651 7.27719C6.41575 7.54113 6.21616 7.76409 5.97634 7.94358C5.70624 8.15116 5.38647 8.2935 5.01886 8.36955C4.65008 8.44573 4.25093 8.48422 3.82096 8.48422H0V0H4.0974C5.1302 0.0168017 5.8624 0.31603 6.29478 0.903677C6.55422 1.26409 6.68277 1.69656 6.68277 2.19925C6.68277 2.71794 6.55267 3.13298 6.29069 3.44831C6.14496 3.62511 5.92967 3.78593 5.64468 3.93109C6.07636 4.08912 6.40389 4.33797 6.62279 4.68063ZM1.95667 3.3449H3.75198C4.12092 3.3449 4.41917 3.27478 4.64888 3.13459C4.87842 2.99463 4.99296 2.74584 4.99296 2.38863C4.99296 1.99398 4.8413 1.73203 4.53725 1.60596C4.27591 1.51837 3.94152 1.47325 3.53578 1.47325H1.95667V3.3449ZM5.16583 5.80222C5.16583 5.36151 4.9857 5.05683 4.62618 4.89335C4.42513 4.80043 4.14146 4.75294 3.77775 4.74955H1.95667V7.01055H3.74957C4.11791 7.01055 4.403 6.96233 4.60874 6.86174C4.97977 6.6768 5.16583 6.32482 5.16583 5.80222ZM13.5815 4.42198C13.6227 4.69956 13.6414 5.10229 13.6338 5.62869H9.20902C9.23343 6.23945 9.44427 6.66656 9.84416 6.91098C10.0853 7.06425 10.3777 7.1391 10.7201 7.1391C11.0811 7.1391 11.3753 7.04783 11.6018 6.86022C11.7252 6.76077 11.8341 6.6204 11.9282 6.44329H13.5501C13.5076 6.80402 13.3123 7.16988 12.9614 7.54167C12.4177 8.13262 11.6551 8.42893 10.6758 8.42893C9.86679 8.42893 9.1538 8.17903 8.53492 7.68103C7.91811 7.18129 7.60832 6.37082 7.60832 5.24653C7.60832 4.19224 7.88644 3.38529 8.44454 2.8236C9.0047 2.26087 9.72762 1.98079 10.6187 1.98079C11.1469 1.98079 11.623 2.0752 12.0478 2.26499C12.4712 2.45498 12.8212 2.75399 13.0968 3.16493C13.3462 3.52683 13.5066 3.94529 13.5815 4.42198ZM11.9851 4.5803C11.9553 4.15797 11.8143 3.83833 11.5604 3.61988C11.3086 3.40082 10.9941 3.29085 10.6187 3.29085C10.2102 3.29085 9.89478 3.4084 9.67065 3.63943C9.445 3.87 9.3046 4.18346 9.24706 4.58033H11.9851V4.5803Z" fill="black"/>
</svg>
