<svg class="social__svg" viewBox="-6 -6 24 24" xmlns="http://www.w3.org/2000/svg">
	<path fill-rule="evenodd" clip-rule="evenodd" d="M9.36923 12H2.63077C1.2 12 0 10.8462 0 9.36923V2.63077C0 1.15385 1.15385 0 2.63077 0H9.36923C10.8 0 12 1.15385 12 2.63077V9.36923C12 10.8462 10.8462 12 9.36923 12ZM5.99993 8.72301C7.50385 8.72301 8.72301 7.50385 8.72301 5.99993C8.72301 4.49602 7.50385 3.27686 5.99993 3.27686C4.49602 3.27686 3.27686 4.49602 3.27686 5.99993C3.27686 7.50385 4.49602 8.72301 5.99993 8.72301ZM10.477 2.26192C10.477 2.72074 10.105 3.09269 9.6462 3.09269C9.18738 3.09269 8.81543 2.72074 8.81543 2.26192C8.81543 1.8031 9.18738 1.43115 9.6462 1.43115C10.105 1.43115 10.477 1.8031 10.477 2.26192Z" fill="black"/>
</svg>
