<svg width="30px" height="30px" viewBox="-7 -5 25 25" xmlns="http://www.w3.org/2000/svg">
<path d="M12 7.35719V12H9.42801V7.66814C9.42801 6.57994 9.056 5.83729 8.12503 5.83729C7.41435 5.83729 6.99142 6.33778 6.80536 6.82192C6.73751 6.995 6.72004 7.23591 6.72004 7.47818V12H4.14719C4.14719 12 4.18184 4.66325 4.14719 3.90311H6.71979V5.05081C6.71457 5.05939 6.70779 5.06865 6.70288 5.07697H6.71979V5.05081C7.06159 4.49989 7.672 3.71289 9.03829 3.71289C10.731 3.71286 12 4.87014 12 7.35719ZM1.45587 0C0.575704 0 0 0.604172 0 1.39868C0 2.17587 0.559048 2.79838 1.42172 2.79838H1.43891C2.33613 2.79838 2.89411 2.17599 2.89411 1.39868C2.87721 0.604172 2.33613 0 1.45587 0ZM0.152805 12H2.72468V3.90311H0.152805V12Z" fill="black"/>
</svg>
