<svg width="50" height="50" viewBox="0 0 45 45" fill="none" xmlns="http://www.w3.org/2000/svg">
<path d="M23 22.5C23 27.1945 19.1933 31 14.5 31C9.80666 31 6 27.1916 6 22.5C6 17.8084 9.80666 14 14.5 14C19.1933 14 23 17.8055 23 22.5Z"/>
<path d="M34 22C34 25.8663 31.7615 29 29 29C26.2384 29 24 25.8663 24 22C24 18.1337 26.2384 15 29 15C31.7615 15 34 18.1337 34 22Z"/>
<path d="M37 22C37 25.8655 36.5521 29 36 29C35.4479 29 35 25.8655 35 22C35 18.1345 35.4479 15 36 15C36.5521 15 37 18.1317 37 22Z"/>
</svg>
